<svg width="48" height="46" viewBox="0 0 48 46" fill="none" xmlns="http://www.w3.org/2000/svg">
<g clip-path="url(#clip0_366_7)">
<path d="M31.8403 21.85C31.7955 22.3065 31.593 22.7422 31.2576 23.1038C30.9222 23.4654 30.4684 23.7372 29.9517 23.886C29.4351 24.0349 28.8779 24.0542 28.3483 23.9418C27.8187 23.8294 27.3397 23.59 26.9697 23.2529C26.5998 22.9159 26.355 22.4957 26.2652 22.0439C26.1754 21.592 26.2446 21.128 26.4642 20.7086C26.6838 20.2891 27.0445 19.9324 27.502 19.6821C27.9595 19.4318 28.494 19.2986 29.0403 19.2989C30.6015 19.3545 31.8403 20.4297 31.8403 21.7465L31.838 21.8538V21.8481L31.8403 21.85ZM19.0312 19.3008C18.2734 19.36 17.5692 19.6539 17.0561 20.1252C16.543 20.5965 16.2579 21.2113 16.2564 21.8495C16.255 22.4876 16.5374 23.1033 17.0484 23.5762C17.5594 24.0491 18.2623 24.3453 19.0197 24.4068H19.0312C19.7843 24.3806 20.4962 24.1113 21.0181 23.6551C21.5399 23.199 21.8312 22.5913 21.8312 21.9592L21.8289 21.8519V21.8577L21.8335 21.7292C21.8335 20.4163 20.5969 19.3468 19.0472 19.297H19.0426L19.0312 19.3008ZM48.0003 4.738V46C41.0906 40.8787 43.2986 42.5749 35.2735 36.317L36.7272 40.572H5.62089C4.12854 40.5684 2.69873 40.069 1.64476 39.183C0.590793 38.2971 -0.00136946 37.0969 -0.00196838 35.8455V4.7265C-0.0019744 3.47528 0.58968 2.2751 1.64328 1.38909C2.69689 0.503088 4.12646 0.00355173 5.6186 0L42.3752 0C43.8675 0.00355069 45.2973 0.503026 46.3513 1.38898C47.4053 2.27493 47.9974 3.4751 47.998 4.7265V4.738H48.0003ZM40.1832 26.542C40.101 21.8139 38.7164 17.1657 36.1375 12.9605L36.2335 13.133C34.0367 11.6786 31.3536 10.8351 28.558 10.7199L28.526 10.718L28.142 11.086C30.7706 11.684 33.0563 12.6902 35.0037 14.0281L34.9717 14.007C31.5777 12.4602 27.774 11.6548 23.9112 11.6648C20.4986 11.6648 17.2575 12.2801 14.3363 13.386L14.4826 13.3362C13.4677 13.7272 12.8643 14.007 12.8643 14.007C14.9383 12.5895 17.3566 11.569 19.95 11.017L20.078 10.994L19.8037 10.718C16.9859 10.8318 14.2812 11.6823 12.0689 13.1502L12.0963 13.133C9.69174 17.0353 8.2426 21.6372 8.1466 26.5152V26.542C9.09408 27.6565 10.354 28.5583 11.8154 29.168C13.2767 29.7777 14.8945 30.0765 16.526 30.038H16.5123C16.5123 30.038 17.5272 29.003 18.35 28.129C16.4322 27.7207 14.742 26.7685 13.566 25.4342L13.55 25.415C13.9523 25.6527 14.6197 25.9593 14.67 25.99C17.6027 27.3408 20.8966 28.0446 24.2426 28.0351C26.8783 28.0378 29.4886 27.6027 31.9226 26.7547L31.79 26.795C32.9969 26.4078 34.0346 25.9517 34.9992 25.4092L34.942 25.4399C33.7365 26.7993 32.0035 27.7638 30.0415 28.1673L29.982 28.1769C30.8049 29.0509 31.7923 30.0399 31.7923 30.0399L32.046 30.0418C33.6308 30.0431 35.1932 29.7287 36.6047 29.1246C38.0162 28.5204 39.2364 27.6438 40.1649 26.5669L40.1855 26.542H40.1832Z" fill="white"/>
</g>
<defs>
<clipPath id="clip0_366_7">
<rect width="48" height="46" fill="white"/>
</clipPath>
</defs>
</svg>
