<svg width="69" height="69" viewBox="0 0 69 69" fill="none" xmlns="http://www.w3.org/2000/svg">
<path d="M57.5072 8.625H11.4928C10.734 8.63064 10.0078 8.9346 9.4712 9.4712C8.9346 10.0078 8.63064 10.734 8.625 11.4928V57.5072C8.63064 58.266 8.9346 58.9922 9.4712 59.5288C10.0078 60.0654 10.734 60.3694 11.4928 60.375H36.2681V40.365H29.5406V32.5378H36.2681V26.7806C36.2681 20.0963 40.3434 16.4522 46.3378 16.4522C48.3431 16.4522 50.3484 16.4522 52.3538 16.7541V23.7188H48.2353C44.9794 23.7188 44.3541 25.2713 44.3541 27.5353V32.5162H52.1166L51.1031 40.3434H44.3541V60.375H57.5072C58.266 60.3694 58.9922 60.0654 59.5288 59.5288C60.0654 58.9922 60.3694 58.266 60.375 57.5072V11.4928C60.3694 10.734 60.0654 10.0078 59.5288 9.4712C58.9922 8.9346 58.266 8.63064 57.5072 8.625V8.625Z" fill="white"/>
</svg>
