<svg width="66" height="65" viewBox="0 0 66 65" fill="none" xmlns="http://www.w3.org/2000/svg">
<path d="M33 5.4165C40.4718 5.4165 41.404 5.44359 44.3355 5.579C47.2642 5.71442 49.258 6.16671 51.0125 6.83838C52.8275 7.5263 54.3565 8.45796 55.8855 9.96109C57.2839 11.315 58.3659 12.9527 59.0563 14.7603C59.7355 16.4855 60.1975 18.4517 60.335 21.3361C60.4643 24.2232 60.5 25.1413 60.5 32.4998C60.5 39.8584 60.4725 40.7765 60.335 43.6636C60.1975 46.548 59.7355 48.5115 59.0563 50.2394C58.3679 52.048 57.2856 53.6861 55.8855 55.0386C54.5104 56.4153 52.8476 57.4808 51.0125 58.1613C49.2607 58.8303 47.2642 59.2853 44.3355 59.4207C41.404 59.548 40.4718 59.5832 33 59.5832C25.5282 59.5832 24.596 59.5561 21.6645 59.4207C18.7357 59.2853 16.742 58.8303 14.9875 58.1613C13.1514 57.4828 11.4882 56.417 10.1145 55.0386C8.71587 53.6849 7.63381 52.0471 6.94375 50.2394C6.26175 48.5142 5.8025 46.548 5.665 43.6636C5.53575 40.7765 5.5 39.8584 5.5 32.4998C5.5 25.1413 5.5275 24.2232 5.665 21.3361C5.8025 18.449 6.26175 16.4882 6.94375 14.7603C7.6319 12.9516 8.71421 11.3134 10.1145 9.96109C11.4886 8.58317 13.1517 7.51744 14.9875 6.83838C16.742 6.16671 18.733 5.71442 21.6645 5.579C24.596 5.45171 25.5282 5.4165 33 5.4165ZM33 18.9582C29.3533 18.9582 25.8559 20.3849 23.2773 22.9244C20.6987 25.464 19.25 28.9084 19.25 32.4998C19.25 36.0913 20.6987 39.5357 23.2773 42.0752C25.8559 44.6148 29.3533 46.0415 33 46.0415C36.6467 46.0415 40.1441 44.6148 42.7227 42.0752C45.3013 39.5357 46.75 36.0913 46.75 32.4998C46.75 28.9084 45.3013 25.464 42.7227 22.9244C40.1441 20.3849 36.6467 18.9582 33 18.9582V18.9582ZM50.875 18.2811C50.875 17.3832 50.5128 16.5221 49.8682 15.8872C49.2235 15.2523 48.3492 14.8957 47.4375 14.8957C46.5258 14.8957 45.6515 15.2523 45.0068 15.8872C44.3622 16.5221 44 17.3832 44 18.2811C44 19.179 44.3622 20.04 45.0068 20.6749C45.6515 21.3098 46.5258 21.6665 47.4375 21.6665C48.3492 21.6665 49.2235 21.3098 49.8682 20.6749C50.5128 20.04 50.875 19.179 50.875 18.2811ZM33 24.3748C35.188 24.3748 37.2865 25.2309 38.8336 26.7546C40.3808 28.2783 41.25 30.345 41.25 32.4998C41.25 34.6547 40.3808 36.7213 38.8336 38.2451C37.2865 39.7688 35.188 40.6248 33 40.6248C30.812 40.6248 28.7135 39.7688 27.1664 38.2451C25.6192 36.7213 24.75 34.6547 24.75 32.4998C24.75 30.345 25.6192 28.2783 27.1664 26.7546C28.7135 25.2309 30.812 24.3748 33 24.3748V24.3748Z" fill="white"/>
</svg>
