<svg width="48" height="46" viewBox="0 0 48 46" fill="none" xmlns="http://www.w3.org/2000/svg">
<g clip-path="url(#clip0_331_19)">
<path d="M0 3.29475C0 1.47488 1.578 0 3.525 0H44.475C46.422 0 48 1.47488 48 3.29475V42.7053C48 44.5251 46.422 46 44.475 46H3.525C1.578 46 0 44.5251 0 42.7053V3.29475ZM14.829 38.5078V17.7359H7.626V38.5078H14.829ZM11.229 14.8983C13.74 14.8983 15.303 13.3055 15.303 11.3103C15.258 9.27188 13.743 7.72225 11.277 7.72225C8.811 7.72225 7.2 9.27475 7.2 11.3103C7.2 13.3055 8.763 14.8983 11.181 14.8983H11.229V14.8983ZM25.953 38.5078V26.9071C25.953 26.2861 26.001 25.6651 26.193 25.2224C26.712 23.9832 27.897 22.6981 29.889 22.6981C32.496 22.6981 33.537 24.6014 33.537 27.3959V38.5078H40.74V26.5938C40.74 20.2112 37.188 17.2443 32.448 17.2443C28.626 17.2443 26.913 19.2567 25.953 20.6741V20.746H25.905C25.9209 20.722 25.9369 20.698 25.953 20.6741V17.7359H18.753C18.843 19.6851 18.753 38.5078 18.753 38.5078H25.953Z" fill="white"/>
</g>
<defs>
<clipPath id="clip0_331_19">
<rect width="48" height="46" fill="white"/>
</clipPath>
</defs>
</svg>
