<svg width="67" height="67" viewBox="0 0 67 67" fill="none" xmlns="http://www.w3.org/2000/svg">
<path d="M57.5781 7.32812H9.42188C8.26377 7.32812 7.32812 8.26377 7.32812 9.42188V57.5781C7.32812 58.7362 8.26377 59.6719 9.42188 59.6719H57.5781C58.7362 59.6719 59.6719 58.7362 59.6719 57.5781V9.42188C59.6719 8.26377 58.7362 7.32812 57.5781 7.32812ZM47.587 26.2831C47.6066 26.5906 47.6066 26.9112 47.6066 27.2253C47.6066 36.8304 40.2916 47.8945 26.9243 47.8945C22.8022 47.8945 18.9812 46.6972 15.762 44.6361C16.3509 44.7016 16.9136 44.7277 17.5155 44.7277C20.9179 44.7277 24.0454 43.5762 26.5383 41.6264C23.3453 41.5609 20.6627 39.4672 19.7467 36.5883C20.8655 36.7519 21.8731 36.7519 23.0247 36.4574C21.3806 36.1234 19.9029 35.2305 18.8425 33.9304C17.7822 32.6303 17.2046 31.0032 17.208 29.3256V29.234C18.1698 29.777 19.3018 30.1107 20.486 30.1565C19.4905 29.493 18.674 28.5942 18.109 27.5396C17.5441 26.485 17.2481 25.3072 17.2473 24.1108C17.2473 22.7564 17.6006 21.5198 18.2353 20.4468C20.0601 22.6932 22.3372 24.5305 24.9187 25.8393C27.5001 27.148 30.328 27.8989 33.2187 28.0432C32.1914 23.1032 35.8816 19.1055 40.3178 19.1055C42.4115 19.1055 44.2959 19.9822 45.6241 21.3955C47.2664 21.088 48.8367 20.4729 50.2369 19.6485C49.6938 21.3301 48.5554 22.7499 47.0439 23.6463C48.5096 23.4893 49.9229 23.0836 51.2314 22.5144C50.2435 23.9669 49.0068 25.2559 47.587 26.2831V26.2831Z" fill="white"/>
</svg>
