<svg width="147" height="147" viewBox="0 0 147 147" fill="none" xmlns="http://www.w3.org/2000/svg">
<circle cx="73.3073" cy="73.6192" r="69.0909" transform="rotate(91.2689 73.3073 73.6192)" fill="#0A0909" fill-opacity="0.98" stroke="#FFB301" stroke-width="5"/>
<g clip-path="url(#clip0_331_69)">
<path d="M89.1223 56.0674L89.0233 60.5407L81.5043 60.3742L81.6033 55.9008L89.1223 56.0674ZM77.8438 55.8176L77.7447 60.2909L70.2257 60.1244L70.3248 55.651L77.8438 55.8176ZM88.8251 69.4874L88.726 73.9607L81.207 73.7942L81.3061 69.3208L88.8251 69.4874ZM77.5466 69.2376L77.4475 73.7109L69.9285 73.5444L70.0276 69.071L77.5466 69.2376ZM66.5653 55.5678L66.4662 60.0411L58.9472 59.8746L59.0463 55.4012L66.5653 55.5678ZM66.2681 68.9878L66.169 73.4611L58.65 73.2946L58.7491 68.8212L66.2681 68.9878ZM76.7539 105.024L77.1587 86.7507L72.1623 92.4135L69.5817 89.201L79.2282 78.2259L88.3792 89.6174L85.6589 92.7124L80.9182 86.834L80.5134 105.108L76.7539 105.024Z" fill="#FFB301"/>
<path d="M65.5745 100.301L50.5365 99.9679L50.8337 86.5479L65.8718 86.881L65.9708 82.4077L50.9328 82.0746L51.7255 46.2879L96.8395 47.2872L96.0469 83.0738L92.2874 82.9906L92.1883 87.4639L95.9478 87.5472C96.9449 87.5693 97.9116 87.1191 98.6352 86.2958C99.3588 85.4726 99.7801 84.3435 99.8064 83.1571L100.599 47.3704C100.625 46.184 100.254 45.0374 99.568 44.1829C98.8815 43.3284 97.9357 42.8359 96.9386 42.8138L48.065 41.7313L46.6779 104.358L65.4754 104.774L65.5745 100.301Z" fill="#FFB301"/>
</g>
<defs>
<clipPath id="clip0_331_69">
<rect width="71.5909" height="60.1668" fill="white" transform="translate(104.557 38.5071) rotate(91.2689)"/>
</clipPath>
</defs>
</svg>
