<svg width="147" height="147" viewBox="0 0 147 147" fill="none" xmlns="http://www.w3.org/2000/svg">
<circle cx="73.5161" cy="73.3355" r="69.0909" transform="rotate(91.2689 73.5161 73.3355)" fill="#0A0909" fill-opacity="0.98" stroke="#FFB301" stroke-width="5"/>
<g clip-path="url(#clip0_331_64)">
<g clip-path="url(#clip1_331_64)">
<path d="M113.676 128.615C113.708 127.144 113.073 125.729 111.922 124.526L109.29 121.65L92.38 137.827L95.1363 140.588C97.4374 142.994 100.944 143.071 103.349 140.77L111.744 132.739C112.947 131.588 113.643 130.081 113.676 128.611L113.676 128.615ZM107.02 118.9L103.558 114.531L85.5171 131.789L89.3524 135.798L107.024 118.9L107.02 118.9ZM100.793 112.139L66.5217 75.9454C66.3776 75.7629 66.2172 75.5938 66.0424 75.4404L65.9262 75.1945C65.4454 74.7559 64.8607 74.4471 64.2273 74.2975L47.5426 69.1446C46.8826 68.9249 46.1751 68.8895 45.4964 69.0419C44.8177 69.1944 44.1935 69.5291 43.6908 70.01C43.1881 70.4909 42.8261 71.0997 42.6437 71.771C42.4614 72.4423 42.4655 73.1506 42.6557 73.8197L47.0648 90.7162C47.1847 91.2766 47.429 91.8029 47.7796 92.2563C48.1302 92.7096 48.5782 93.0783 49.0905 93.3352L82.7634 128.911L90.0209 122.448L89.6522 122.44L94.4149 117.883L94.4067 118.252L100.793 112.143L100.793 112.139ZM99.6188 43.4458C99.4661 42.5334 98.9958 41.7042 98.2911 41.1048C97.5863 40.5055 96.6924 40.1745 95.7673 40.1703L17.325 38.4328C16.2848 38.4098 15.278 38.8009 14.5262 39.5202C13.7744 40.2394 13.339 41.2279 13.316 42.2681L11.5786 120.71C11.5555 121.751 11.9466 122.757 12.6659 123.509C13.3851 124.261 14.3736 124.696 15.4138 124.719L58.5571 125.675C59.5973 125.698 60.604 125.307 61.3559 124.588C62.1077 123.868 62.543 122.88 62.5661 121.84C62.5891 120.799 62.198 119.793 61.4787 119.041C60.7595 118.289 59.771 117.854 58.7308 117.831L19.5097 116.962L21.0734 46.3639L91.6714 47.9276L90.8027 87.1488C90.7797 88.189 91.1708 89.1957 91.89 89.9476C92.6093 90.6994 93.5977 91.1347 94.638 91.1578C95.6782 91.1808 96.6849 90.7897 97.4367 90.0704C98.1886 89.3512 98.6239 88.3627 98.6469 87.3225L99.6025 44.1793C99.611 44.0566 99.6138 43.9335 99.6107 43.8106C99.6192 43.6879 99.6219 43.5649 99.6189 43.4419L99.6188 43.4458ZM60.2786 81.0811L59.7944 86.4659L53.903 86.7043L52.4301 81.2761L54.555 79.2395L60.2825 81.0812L60.2786 81.0811Z" fill="#FFB301"/>
</g>
</g>
<defs>
<clipPath id="clip0_331_64">
<rect width="90.6311" height="82.2534" fill="white" transform="translate(115.577 31.6068) rotate(91.2689)"/>
</clipPath>
<clipPath id="clip1_331_64">
<rect width="102" height="102" fill="white" transform="translate(115.378 40.6046) rotate(91.2689)"/>
</clipPath>
</defs>
</svg>
