<svg width="148" height="147" viewBox="0 0 148 147" fill="none" xmlns="http://www.w3.org/2000/svg">
<circle cx="73.9466" cy="73.1587" r="69.0909" transform="rotate(91.2689 73.9466 73.1587)" fill="#0A0909" fill-opacity="0.98" stroke="#FFB301" stroke-width="5"/>
<g clip-path="url(#clip0_331_60)">
<path d="M68.4472 89.2884C68.411 90.9244 68.8664 92.288 69.8135 93.3792C70.7606 94.4704 71.9766 95.0324 73.4614 95.0653C74.9461 95.0982 76.1858 94.5905 77.1803 93.5424C78.1748 92.4942 78.6901 91.1521 78.7264 89.5161C78.7626 87.8801 78.3072 86.5165 77.36 85.4253C76.4129 84.3341 75.197 83.7721 73.7122 83.7392C72.2274 83.7063 70.9878 84.214 69.9933 85.2621C68.9988 86.3103 68.4834 87.6524 68.4472 89.2884ZM50.5219 47.342L98.4913 48.4044L50.5219 47.342ZM43.6692 47.1902C43.7152 45.1137 44.425 43.3504 45.7986 41.9001C47.1745 40.4525 48.8047 39.7495 50.6892 39.7912L98.6586 40.8537C100.543 40.8954 102.141 41.6699 103.451 43.1771C104.759 44.6867 105.39 46.4798 105.344 48.5562L104.173 101.411C104.127 103.488 103.418 105.251 102.044 106.701C100.668 108.149 99.0379 108.852 97.1534 108.81L88.5874 108.621L88.7546 101.07L97.3206 101.26L98.4913 48.4044L50.5219 47.342L49.3512 100.197L57.9172 100.387L57.7499 107.938L49.184 107.748C47.2995 107.706 45.702 106.932 44.3916 105.424C43.0835 103.915 42.4525 102.122 42.4985 100.045L43.6692 47.1902ZM56.7057 77.6967C56.7517 75.6202 57.4615 73.8581 58.8351 72.4104C60.211 70.9602 61.8412 70.256 63.7257 70.2977L84.284 70.7531C86.1686 70.7948 87.766 71.5705 89.0764 73.0802C90.3845 74.5874 91.0156 76.3792 90.9696 78.4556L90.3842 104.883C90.3382 106.96 89.6284 108.723 88.2548 110.173C86.8789 111.621 85.2487 112.324 83.3642 112.282L62.8059 111.827C60.9214 111.785 59.3239 111.011 58.0135 109.503C56.7054 107.994 56.0744 106.201 56.1204 104.124L56.7057 77.6967ZM62.9731 104.276L83.5314 104.731L84.1168 78.3038L63.5585 77.8485L62.9731 104.276Z" fill="#FFB301"/>
</g>
<defs>
<clipPath id="clip0_331_60">
<rect width="90.6311" height="82.2534" fill="white" transform="translate(116.041 29.907) rotate(91.2689)"/>
</clipPath>
</defs>
</svg>
