<svg width="147" height="147" viewBox="0 0 147 147" fill="none" xmlns="http://www.w3.org/2000/svg">
<circle cx="73.1587" cy="73.8413" r="69.0909" transform="rotate(91.2689 73.1587 73.8413)" fill="#0A0909" fill-opacity="0.98" stroke="#FFB301" stroke-width="5"/>
<path d="M32.2801 87.9813C32.3486 84.8881 33.4894 82.2828 35.7027 80.1654C37.9159 78.0481 40.5692 77.0237 43.6624 77.0922C44.0955 77.1018 44.544 77.1427 45.0078 77.2149C45.4692 77.287 45.8841 77.389 46.2526 77.521L62.0511 51.689C61.1464 50.6168 60.4461 49.4252 59.9503 48.1145C59.4519 46.8036 59.2185 45.4367 59.2501 44.0138C59.3186 40.9206 60.4595 38.3153 62.6727 36.198C64.8859 34.0806 67.5392 33.0562 70.6325 33.1247C73.7257 33.1933 76.331 34.3341 78.4483 36.5474C80.5657 38.7606 81.5901 41.4139 81.5216 44.5071C81.49 45.93 81.1976 47.2853 80.6442 48.5728C80.0883 49.8603 79.3348 51.0196 78.3835 52.0508L93.0227 78.5569C93.3966 78.4414 93.8157 78.3578 94.2798 78.3062C94.7464 78.2546 95.1962 78.2337 95.6293 78.2432C98.7225 78.3118 101.328 79.4526 103.445 81.6659C105.562 83.8791 106.587 86.5324 106.518 89.6256C106.45 92.7189 105.309 95.3242 103.096 97.4415C100.882 99.5589 98.2292 100.583 95.136 100.515C92.0427 100.446 89.4374 99.3054 87.3201 97.0921C85.2028 94.8789 84.1784 92.2256 84.2469 89.1323C84.2784 87.7094 84.5721 86.3542 85.128 85.0667C85.6813 83.7792 86.4337 82.6198 87.385 81.5887L72.7457 55.0826C72.3718 55.1981 71.9528 55.2817 71.4886 55.3333C71.022 55.3848 70.5722 55.4058 70.1392 55.3962C69.7061 55.3866 69.2589 55.3458 68.7975 55.2737C68.3336 55.2015 67.9175 55.0994 67.549 54.9675L51.7506 80.7994C52.6552 81.8717 53.3567 83.0632 53.8551 84.3741C54.3509 85.6849 54.5831 87.0517 54.5515 88.4746C54.483 91.5679 53.3422 94.1732 51.1289 96.2905C48.9157 98.4078 46.2624 99.4322 43.1692 99.3637C40.0759 99.2952 37.4706 98.1543 35.3533 95.9411C33.2359 93.7278 32.2115 91.0746 32.2801 87.9813ZM91.6707 89.2968C91.6474 90.3485 91.983 91.2373 92.6775 91.9633C93.3744 92.6917 94.2487 93.0676 95.3004 93.0909C96.3521 93.1142 97.2422 92.7774 97.9707 92.0805C98.6966 91.386 99.0712 90.5129 99.0945 89.4612C99.1178 88.4095 98.7822 87.5207 98.0878 86.7947C97.3909 86.0663 96.5166 85.6904 95.4648 85.6671C94.4131 85.6438 93.523 85.9806 92.7946 86.6775C92.0686 87.372 91.694 88.2451 91.6707 89.2968ZM66.6739 44.1783C66.6506 45.23 66.9874 46.1201 67.6843 46.8485C68.3788 47.5745 69.2519 47.9491 70.3036 47.9724C71.3553 47.9957 72.2454 47.6601 72.9738 46.9657C73.6998 46.2687 74.0744 45.3944 74.0977 44.3427C74.121 43.291 73.7855 42.4009 73.091 41.6725C72.3941 40.9465 71.5197 40.5719 70.468 40.5486C69.4163 40.5253 68.5275 40.8609 67.8015 41.5554C67.0731 42.2523 66.6972 43.1266 66.6739 44.1783ZM39.7039 88.1458C39.6806 89.1975 40.0174 90.0863 40.7144 90.8123C41.4088 91.5407 42.2819 91.9166 43.3336 91.9399C44.3853 91.9632 45.2741 91.6263 46.0001 90.9294C46.7286 90.235 47.1044 89.3619 47.1277 88.3102C47.151 87.2585 46.8142 86.3696 46.1172 85.6436C45.4228 84.9152 44.5497 84.5393 43.498 84.5161C42.4463 84.4928 41.5575 84.8296 40.8315 85.5265C40.103 86.221 39.7272 87.094 39.7039 88.1458Z" fill="#FDB60F"/>
</svg>
