<svg width="42" height="42" viewBox="0 0 42 42" fill="none" xmlns="http://www.w3.org/2000/svg">
<path d="M28 10.9899C27.9998 12.0429 27.5834 13.0531 26.8415 13.8004C25.1335 15.5224 23.4762 17.3179 21.7035 18.9769C21.5056 19.1572 21.246 19.2546 20.9783 19.2491C20.7106 19.2436 20.4553 19.1355 20.265 18.9471L15.1585 13.8021C14.4162 13.0544 13.9996 12.0435 13.9996 10.9899C13.9996 9.93627 14.4162 8.92538 15.1585 8.17764C15.5289 7.8045 15.9694 7.50836 16.4548 7.30627C16.9402 7.10418 17.4607 7.00013 17.9865 7.00013C18.5122 7.00013 19.0328 7.10418 19.5182 7.30627C20.0035 7.50836 20.4441 7.8045 20.8145 8.17764L21 8.36489L21.1855 8.17764C21.7415 7.61565 22.4521 7.23182 23.2269 7.075C24.0017 6.91819 24.8057 6.99549 25.5364 7.29705C26.2672 7.59862 26.8917 8.11082 27.3304 8.76844C27.7691 9.42606 28.0022 10.1994 28 10.9899V10.9899Z" stroke="black" stroke-width="1.5" stroke-linejoin="round"/>
<path d="M31.5 35L38.192 28.308C38.389 28.1113 38.4998 27.8444 38.5 27.566V18.375C38.5 17.6788 38.2234 17.0111 37.7312 16.5188C37.2389 16.0266 36.5712 15.75 35.875 15.75V15.75C35.1788 15.75 34.5111 16.0266 34.0188 16.5188C33.5266 17.0111 33.25 17.6788 33.25 18.375V26.25" stroke="black" stroke-width="1.5" stroke-linecap="round" stroke-linejoin="round"/>
<path d="M31.5 28L33.0015 26.4985C33.0804 26.4197 33.1429 26.3262 33.1856 26.2231C33.2282 26.1201 33.2501 26.0097 33.25 25.8982C33.2498 25.7409 33.2058 25.5867 33.1229 25.4529C33.0401 25.3191 32.9217 25.2109 32.781 25.1405L32.0057 24.7538C31.349 24.4254 30.6055 24.3119 29.8806 24.4293C29.1558 24.5468 28.4862 24.8892 27.9667 25.4083L26.4005 26.9745C25.7441 27.6307 25.3752 28.5208 25.375 29.449V35M10.5 35L3.808 28.308C3.61103 28.1113 3.50025 27.8444 3.5 27.566V18.375C3.5 17.6788 3.77656 17.0111 4.26884 16.5188C4.76113 16.0266 5.42881 15.75 6.125 15.75V15.75C6.82119 15.75 7.48887 16.0266 7.98116 16.5188C8.47344 17.0111 8.75 17.6788 8.75 18.375V26.25" stroke="black" stroke-width="1.5" stroke-linecap="round" stroke-linejoin="round"/>
<path d="M10.5 27.9998L8.9985 26.4983C8.91969 26.4195 8.85718 26.3259 8.81455 26.2229C8.77191 26.1199 8.74998 26.0095 8.75 25.898V25.898C8.75 25.5778 8.932 25.2855 9.219 25.1403L9.99425 24.7535C10.651 24.4251 11.3945 24.3116 12.1194 24.4291C12.8442 24.5466 13.5138 24.889 14.0333 25.408L15.5995 26.9743C16.2559 27.6305 16.6248 28.5206 16.625 29.4488V34.9998" stroke="black" stroke-width="1.5" stroke-linecap="round" stroke-linejoin="round"/>
</svg>
