<svg width="35" height="42" viewBox="0 0 35 42" fill="none" xmlns="http://www.w3.org/2000/svg">
<path d="M33.7625 14.2864C35.856 11.7919 34.9013 8.87827 33.7625 7.46139L28.738 1.47456C26.6278 -1.01995 24.1993 0.117549 23.0101 1.47456L20.163 4.88705H15.8252C12.643 4.88705 10.8007 6.88266 9.86284 9.17761L2.42665 18.0381V26.0205L1.23753 27.4175C-0.855993 29.9319 0.0986528 32.8256 1.23753 34.2425L6.26198 40.2293C7.16638 41.3069 8.13777 41.706 9.05892 41.706C10.248 41.706 11.3367 41.0076 11.9899 40.2293L16.5119 34.8212H22.5245C25.3716 34.8212 26.812 32.7058 27.3312 30.6304C29.2237 30.0317 30.2621 28.3155 30.6808 26.6392C33.2768 25.8409 34.2482 22.9074 34.2482 20.8519V14.8651H33.26L33.7625 14.2864ZM30.8985 20.8519C30.8985 21.7499 30.5803 22.8475 29.2237 22.8475H27.5489V24.8431C27.5489 25.7412 27.2307 26.8387 25.8741 26.8387H24.1993V28.8344C24.1993 29.7324 23.8811 30.83 22.5245 30.83H15.1385L9.64511 37.3756C9.12592 37.9543 8.82445 37.615 8.64022 37.3955L3.63252 31.4486C3.14682 30.83 3.43154 30.4708 3.61577 30.2512L5.77628 27.6569V19.6745L9.12592 15.6833V18.8563C9.12592 21.271 10.4658 24.8431 14.1504 24.8431C17.835 24.8431 19.1748 21.271 19.1748 18.8563H30.8985V20.8519ZM31.3842 11.4526L28.537 14.8651H15.8252V18.8563C15.8252 19.7543 15.507 20.8519 14.1504 20.8519C12.7938 20.8519 12.4755 19.7543 12.4755 18.8563V12.8695C12.4755 11.9515 12.7603 8.87827 15.8252 8.87827H21.5363L25.3549 4.32828C25.8741 3.74956 26.1756 4.08881 26.3598 4.30833L31.3675 10.2552C31.8532 10.8739 31.5685 11.2331 31.3842 11.4526Z" fill="black"/>
</svg>
